<?xml version="1.0" encoding="UTF-8"?><svg id="Layer_1" xmlns="http://www.w3.org/2000/svg" viewBox="0 0 131.15 82.44"><defs><style>.cls-1{fill:#454540;}</style></defs><g><path class="cls-1" d="M6.49,56.07h-.36s-.04-.14-.04-.27c0-.18,0-.31,.09-.31,2.29,0,3.18-2.24,3.18-3.94,0-2.15-1.3-3.4-3.4-3.4-.58,0-.94,.13-1.07,.31-.14,.18-.36,1.52-.36,4.84v3.49c0,4.39,.18,4.97,.49,5.1,.36,.18,1.07,.31,2.15,.4,.09,.04,.09,.22,.09,.36s0,.22-.04,.22H.04s-.04-.14-.04-.22c0-.18,.04-.31,.09-.36,.99-.09,1.39-.22,1.7-.4,.31-.14,.54-.72,.54-5.1v-3.49c0-4.39-.22-4.92-.54-5.06-.31-.18-.72-.31-1.7-.45-.04,0-.09-.22-.09-.36,0-.09,.04-.18,.04-.18,1.12,0,2.24,.04,3.18,.04s1.88-.04,2.78-.04c3.54,0,5.82,1.88,5.82,4.34,0,2.15-2.15,4.48-5.33,4.48"/><path class="cls-1" d="M24.97,62.88s-.04-.18-.04-.36c0-.14,0-.22,.04-.22,.76-.05,1.25-.22,1.25-.58,0-.4-.31-1.21-1.75-4.61h-4.92c-1.16,3.04-1.43,3.94-1.43,4.48,0,.4,.36,.63,1.39,.72,.04,0,.09,.13,.09,.27s-.04,.31-.09,.31h-5.19s-.09-.14-.09-.27,.04-.27,.09-.31c.76-.05,1.21-.18,1.56-.45,.49-.36,1.03-1.26,2.46-5.02l1.34-3.49c.76-2.01,1.57-4.12,2.19-6,0-.09,.27-.14,.54-.14s.54,.05,.58,.14c.63,1.88,1.3,3.49,2.01,5.37l1.61,4.12c1.79,4.57,2.15,4.79,2.6,5.06,.45,.27,.81,.36,1.52,.4,.04,0,.04,.09,.04,.22,0,.18,0,.36-.04,.36h-5.78Zm-2.96-12.36l-2.01,5.46h4.07l-2.06-5.46Z"/><path class="cls-1" d="M47.48,50.7s-.09,.04-.22,.04c-.18,0-.36-.04-.36-.09,0-.63-.14-1.26-.45-1.61-.45-.49-1.16-.81-3.85-.81-.54,0-.85,.04-1.08,.04-.09,.27-.13,1.21-.13,2.73v5.82c0,4.39,.22,4.92,.54,5.06,.31,.18,.94,.31,1.93,.4,.04,.04,.04,.18,.04,.31s0,.27-.04,.27h-7.07s-.09-.14-.09-.27,.04-.27,.09-.31c.99-.09,1.61-.22,1.92-.4,.31-.14,.49-.67,.49-5.06v-5.82c0-1.52,0-2.46-.09-2.73-.22,0-.67-.04-1.21-.04-2.55,0-3.27,.27-3.85,.81-.4,.36-.63,1.07-.76,1.66,0,.04-.04,.04-.14,.04-.18,0-.45-.09-.45-.13l.36-3.49s.04-.09,.14-.09c.89,.13,2.82,.27,7.12,.27,5.91,0,6.81-.14,7.25-.31,.09,0,.14,.05,.14,.09,0,.94-.04,2.33-.22,3.63"/><path class="cls-1" d="M64.47,62.88s-.09-.14-.09-.27,.04-.27,.09-.31c.99-.09,1.39-.22,1.7-.4,.31-.14,.54-.67,.54-5.06v-1.43h-9v1.43c0,4.39,.22,4.92,.54,5.06,.31,.18,.72,.31,1.7,.4,.05,.04,.09,.18,.09,.36,0,.09-.04,.22-.04,.22h-6.72s-.04-.14-.04-.27,0-.27,.09-.31c.99-.09,1.39-.22,1.7-.4,.31-.14,.49-.67,.49-5.06v-3.49c0-4.39-.18-4.92-.49-5.06-.31-.18-.72-.31-1.7-.45-.09,0-.09-.14-.09-.27s0-.27,.04-.27h6.72s.04,.09,.04,.18c0,.14-.04,.36-.09,.36-.98,.14-1.39,.27-1.7,.45-.31,.14-.54,.67-.54,5.06v1.08h9v-1.08c0-4.39-.22-4.92-.54-5.06-.31-.18-.71-.31-1.7-.45-.04,0-.09-.14-.09-.27s.04-.27,.09-.27h6.67s.05,.09,.05,.22,0,.31-.09,.31c-.94,.14-1.39,.27-1.7,.45-.27,.14-.49,.67-.49,5.06v3.49c0,4.39,.22,4.92,.49,5.06,.31,.18,.76,.31,1.7,.4,.09,.04,.09,.22,.09,.36s0,.22-.05,.22h-6.67Z"/><path class="cls-1" d="M97.37,48.32c-.4,.31-.89,.76-2.55,5.02l-1.34,3.49c-.76,2.01-1.66,4.12-2.29,6-.04,.09-.31,.13-.58,.13s-.54-.04-.54-.13c-.81-2.11-1.52-3.81-2.46-6l-.54-1.26-.58,1.26c-.94,2.01-1.84,4.12-2.6,6-.04,.09-.31,.13-.58,.13s-.54-.04-.54-.13c-.67-2.11-1.25-3.81-2.1-6l-1.34-3.49c-1.61-4.25-2.06-4.79-2.46-5.02-.36-.27-.9-.4-1.61-.49-.05,0-.09-.14-.09-.27s.04-.27,.09-.27h5.95s.05,.14,.05,.27,0,.27-.05,.27c-.94,.13-1.25,.31-1.25,.67,0,.49,.31,1.16,1.61,4.84l2.33,6.67,2.6-5.82-.4-.85c-1.97-4.21-2.15-4.79-2.55-5.02-.4-.27-.89-.4-1.66-.49-.04,0-.04-.14-.04-.22,0-.14,0-.31,.04-.31h10.57s.09,.18,.09,.31-.04,.22-.09,.22c-.72,.09-1.03,.22-1.39,.49-.76,.54-1.21,1.26-2.82,4.84l2.77,6.9,2.6-6.72c1.3-3.31,1.48-4.17,1.48-4.7,0-.45-.4-.67-1.48-.81-.04,0-.04-.14-.04-.22,0-.14,0-.31,.04-.31h5.24s.04,.18,.04,.31c0,.09,0,.22-.04,.22-.76,.09-1.12,.22-1.48,.49m-9.85-.45c-.85,0-1.16,.27-1.16,.63,0,.45,.18,.9,1.16,3.22l.14,.31c.94-2.19,1.12-2.96,1.12-3.4,0-.4-.36-.76-1.25-.76"/><path class="cls-1" d="M108.79,62.88s-.04-.18-.04-.36c0-.14,0-.22,.04-.22,.76-.05,1.25-.22,1.25-.58,0-.4-.31-1.21-1.75-4.61h-4.92c-1.16,3.04-1.43,3.94-1.43,4.48,0,.4,.36,.63,1.39,.72,.04,0,.09,.13,.09,.27s-.04,.31-.09,.31h-5.19s-.09-.14-.09-.27,.04-.27,.09-.31c.76-.05,1.21-.18,1.56-.45,.49-.36,1.03-1.26,2.46-5.02l1.34-3.49c.76-2.01,1.57-4.12,2.19-6,0-.09,.27-.14,.54-.14s.54,.05,.58,.14c.63,1.88,1.3,3.49,2.01,5.37l1.61,4.12c1.79,4.57,2.15,4.79,2.6,5.06,.45,.27,.81,.36,1.52,.4,.04,0,.04,.09,.04,.22,0,.18,0,.36-.04,.36h-5.78Zm-2.96-12.36l-2.01,5.46h4.07l-2.06-5.46Z"/><path class="cls-1" d="M129.4,48.14c-.63,.31-1.07,.99-2.37,3l-1.34,2.1c-.58,.9-1.16,1.88-1.7,2.78v.81c0,4.39,.22,4.93,.49,5.06,.31,.18,.94,.31,1.93,.4,.04,.04,.04,.18,.04,.31s0,.27-.04,.27h-7.07s-.09-.13-.09-.27,.04-.27,.09-.31c.99-.09,1.61-.23,1.92-.4,.31-.14,.49-.67,.49-5.06v-.71c-.54-.94-1.08-1.84-1.75-2.87l-1.39-2.1c-1.57-2.42-1.97-2.86-2.42-3-.4-.18-.89-.22-1.61-.27-.04,0-.09-.14-.09-.27s.04-.31,.09-.31h5.96s.09,.13,.09,.31c0,.14-.04,.27-.09,.27-.54,.04-1.08,.04-1.08,.31,0,.22,.31,.76,1.52,2.73l2.42,3.94,2.51-3.9c.94-1.48,1.3-2.19,1.3-2.55,0-.13-.04-.22-.14-.27-.22-.14-.54-.22-1.21-.27-.04,0-.04-.09-.04-.23,0-.18,0-.36,.04-.36h5.24s.05,.18,.05,.31,0,.27-.05,.27c-.71,.04-1.34,.13-1.7,.27"/></g><path class="cls-1" d="M24.25,10.95V5.99c0-.38-.06-.68-.06-.68,0,0,.35,.06,.68,.06h3.74c2.85,0,4.52,.44,4.52,3.03,0,1.68-1.04,3.18-4.4,3.18h-3.85c-.34,0-.67,.04-.67,.04,0,0,.04-.32,.04-.67m0,11.38v-5.74c0-.39-.05-.67-.05-.67,0,0,.34,.05,.67,.05h3.16c2.52,0,5.61,0,5.61,3.49,0,2.59-2.21,3.49-5.18,3.49h-3.59c-.34,0-.66,.05-.66,.05,0,0,.04-.34,.04-.67M15.18,2.28V26.17c0,.77,.04,1.05-.51,1.39-.54,.33-1.09,.39-1.97,.54,0,0,0,0-.02,0-.09,.02-.07,.35,.02,.35h19.32c8.15,0,11.58-3.23,11.58-8.28,0-3.73-1.74-6.01-5.18-6.87-.06-.02-.06-.09,0-.11,2.19-.68,4.2-2.27,4.2-6.15,0-5.27-3.56-7.05-11.32-7.05H12.71c-.09,0-.11,.33-.02,.36,0,0,.02,0,.02,0,.88,.15,1.43,.21,1.97,.54,.55,.34,.5,.61,.5,1.39"/><path class="cls-1" d="M112.55,2.29c0-.77-.05-1.05,.5-1.39,.54-.33,1.09-.39,1.97-.54,0,0,0,0,.02,0,.09-.02,.07-.35-.02-.35h-14.25c-.09,0-.11,.33-.02,.35,0,0,.02,0,.02,0,.9,.11,1.32,.2,1.85,.54,.55,.34,.5,.61,.5,1.39v14.36c0,3.27-1.87,5.79-5.6,5.79s-5.6-2.51-5.6-5.79V2.29c0-.77-.04-1.05,.5-1.39,.54-.33,.98-.42,1.85-.54,0,0,0,0,.02,0,.09-.02,.07-.35-.02-.35h-13.45c-.1,0-.08,.34,0,.35,0,0,.02,0,.02,0,.49,.03,.83,.06,1.13,.31,.45,.38,.52,.84,.52,1.61v14.11c0,6.8,3.72,12.58,15.02,12.58s15.02-5.78,15.02-12.58V2.29Z"/><path class="cls-1" d="M69.36,28.46c.09,0,.11-.33,.02-.35,0,0-.02,0-.02,0-.88-.15-1.43-.2-1.97-.54-.55-.34-.5-.61-.5-1.39v-9.06l9.86-14.64c.54-.8,.88-1.22,1.33-1.59,.08-.06,.26-.18,.37-.25,.41-.2,.56-.25,1.06-.27,0,0,0,0,.02,0,.09-.01,.12-.35,.01-.35h-13.29c-.11,0-.09,.35,0,.36,0,0,.02,0,.02,0,.65,0,1.44,0,1.31,.93-.07,.9-3.91,6.44-5.27,8.54-.2,.3-.35,.61-.41,.99-.05-.37-.28-.75-.44-.99-1.9-2.83-5.16-7.43-5.25-8.55-.08-.96,.67-.93,1.31-.93,0,0,0,0,.02,0,.09,0,.13-.35,.02-.35h-13.96c-.08,0-.07,.32,0,.35,0,0,.02,0,.02,0,.6,.06,.92,.02,1.62,.36,.08,.04,.28,.17,.35,.23,.44,.37,.71,.72,1.25,1.52l9.84,14.57v9.13c0,.77,.05,1.05-.5,1.39-.54,.33-1.09,.39-1.97,.54,0,0,0,0-.02,0-.09,.02-.07,.35,.02,.35h15.15Z"/><path class="cls-1" d="M14.02,36.13c-.13,0-.23,.15-.23,.33s.1,.33,.23,.33H112.64c.13,0,.23-.15,.23-.33s-.1-.33-.23-.33H14.02Z"/><g><path class="cls-1" d="M25.98,72.96c-.26,.2-.57,.49-1.64,3.22l-.86,2.24c-.49,1.29-1.06,2.64-1.47,3.85-.03,.06-.2,.09-.37,.09s-.35-.03-.35-.09c-.52-1.35-.98-2.44-1.58-3.85l-.35-.81-.37,.81c-.6,1.29-1.18,2.64-1.67,3.85-.03,.06-.2,.09-.37,.09s-.34-.03-.34-.09c-.43-1.35-.81-2.44-1.35-3.85l-.86-2.24c-1.03-2.73-1.32-3.07-1.58-3.22-.23-.17-.58-.26-1.03-.31-.03,0-.06-.09-.06-.17s.03-.17,.06-.17h3.82s.03,.09,.03,.17,0,.17-.03,.17c-.6,.09-.8,.2-.8,.43,0,.32,.2,.75,1.03,3.1l1.49,4.28,1.67-3.73-.26-.55c-1.26-2.7-1.38-3.07-1.64-3.22-.26-.17-.57-.26-1.06-.31-.03,0-.03-.09-.03-.14,0-.09,0-.2,.03-.2h6.77s.06,.11,.06,.2-.03,.14-.06,.14c-.46,.06-.66,.14-.89,.31-.49,.35-.77,.81-1.81,3.1l1.78,4.42,1.66-4.31c.83-2.12,.95-2.67,.95-3.01,0-.29-.26-.43-.95-.52-.03,0-.03-.09-.03-.14,0-.09,0-.2,.03-.2h3.36s.03,.11,.03,.2c0,.06,0,.14-.03,.14-.49,.06-.72,.14-.95,.31m-6.32-.29c-.55,0-.75,.17-.75,.4,0,.29,.11,.57,.75,2.07l.09,.2c.6-1.41,.72-1.89,.72-2.18,0-.26-.23-.49-.81-.49"/><path class="cls-1" d="M32.78,82.44c-3.04,0-5.31-2.24-5.31-5.02s2.27-5.25,5.51-5.25c3.04,0,5.31,2.24,5.31,5.03,0,2.64-2.27,5.25-5.51,5.25m-.11-9.65c-2.81,0-3.62,2.3-3.62,4.19,0,2.5,1.49,4.83,4.05,4.83,2.81,0,3.62-2.3,3.62-4.19,0-2.5-1.49-4.82-4.05-4.82"/><path class="cls-1" d="M50.2,82.32c-.98,0-1.75-.14-2.38-.54-.81-.55-1.69-1.61-2.96-3.71h-.58c-.37,0-.63,0-1.06-.03v.35c0,2.81,.14,3.19,.35,3.27,.2,.12,.69,.2,1.38,.26,.03,.03,.06,.11,.06,.23,0,.06-.03,.14-.03,.14h-4.59s-.03-.06-.03-.14,0-.2,.06-.23c.6-.06,.89-.14,1.09-.26,.17-.08,.31-.46,.31-3.27v-2.24c0-2.81-.14-3.16-.31-3.24-.2-.12-.49-.2-1.09-.29-.06,0-.06-.11-.06-.2s0-.14,.03-.14c.72,0,1.55,.03,2.15,.03s1.21-.03,1.92-.03c2.38,0,3.73,1.26,3.73,2.53s-.92,2.24-2.04,2.9c2.13,3.07,3.27,4.19,4.51,4.19h.46s.09,.29,.09,.35c-.35,.06-.63,.08-1.01,.08m-5.77-9.47c-.55,0-.89,.09-.95,.2-.11,.11-.26,1.06-.26,3.1,0,.92,.06,1.03,.14,1.12,.17,.14,.49,.26,1.23,.26,1.18,0,1.98-1.03,1.98-2.21,0-1.38-.63-2.47-2.15-2.47"/><path class="cls-1" d="M59.63,82.06c-.11,.17-.29,.29-.69,.29-.98,0-2.13-.06-3.45-.06-1.03,0-1.78,0-2.93,.03,0,0-.03-.09-.03-.14,0-.11,.03-.2,.06-.23,.63-.06,.89-.14,1.09-.26,.2-.09,.31-.43,.31-3.24v-2.27c0-2.81-.11-3.16-.31-3.25-.2-.11-.46-.2-1.09-.29-.03,0-.06-.14-.06-.23,0-.06,.03-.11,.03-.11h4.31s.03,.06,.03,.11c0,.09-.03,.23-.06,.23-.63,.09-.89,.17-1.09,.29-.2,.09-.31,.43-.31,3.25v2.27c0,1.87,.14,2.73,.34,2.96,.17,.17,.4,.29,1.32,.29s1.49-.23,1.87-.66c.35-.4,.6-1.06,.72-1.55,0-.03,.06-.03,.11-.03,.11,0,.29,.03,.29,.09-.09,.81-.31,2.3-.46,2.53"/><path class="cls-1" d="M70.89,80.77c-1.09,1.06-2.3,1.55-4.3,1.55-.72,0-1.84-.03-2.44-.03s-1.44,.03-2.13,.03c-.03,0-.06-.08-.06-.17s.03-.17,.06-.2c.63-.06,.89-.14,1.09-.26,.2-.09,.34-.46,.34-3.27v-2.24c0-2.81-.14-3.19-.34-3.27-.2-.12-.46-.2-1.09-.29-.03,0-.06-.08-.06-.17s.03-.17,.06-.17c.69,0,1.55,.03,2.13,.03s2.07-.03,2.76-.03c3.22,0,5.63,2.12,5.63,4.91,0,1.32-.66,2.64-1.64,3.59m-4.45-7.92c-.98,0-1.23,.14-1.35,.29-.09,.11-.23,.86-.23,2.99v2.3c0,1.87,.14,2.7,.35,2.93,.29,.29,.52,.37,1.35,.37,3.1,0,4.42-1.38,4.42-4.28,0-2.35-1.52-4.59-4.54-4.59"/><path class="cls-1" d="M87.74,72.96c-.26,.2-.57,.49-1.64,3.22l-.86,2.24c-.49,1.29-1.06,2.64-1.47,3.85-.03,.06-.2,.09-.37,.09s-.35-.03-.35-.09c-.52-1.35-.98-2.44-1.58-3.85l-.35-.81-.37,.81c-.6,1.29-1.18,2.64-1.67,3.85-.03,.06-.2,.09-.37,.09s-.34-.03-.34-.09c-.43-1.35-.81-2.44-1.35-3.85l-.86-2.24c-1.03-2.73-1.32-3.07-1.58-3.22-.23-.17-.58-.26-1.03-.31-.03,0-.06-.09-.06-.17s.03-.17,.06-.17h3.82s.03,.09,.03,.17,0,.17-.03,.17c-.6,.09-.8,.2-.8,.43,0,.32,.2,.75,1.03,3.1l1.49,4.28,1.67-3.73-.26-.55c-1.26-2.7-1.38-3.07-1.64-3.22-.26-.17-.57-.26-1.06-.31-.03,0-.03-.09-.03-.14,0-.09,0-.2,.03-.2h6.77s.06,.11,.06,.2-.03,.14-.06,.14c-.46,.06-.66,.14-.89,.31-.49,.35-.77,.81-1.81,3.1l1.78,4.42,1.66-4.31c.83-2.12,.95-2.67,.95-3.01,0-.29-.26-.43-.95-.52-.03,0-.03-.09-.03-.14,0-.09,0-.2,.03-.2h3.36s.03,.11,.03,.2c0,.06,0,.14-.03,.14-.49,.06-.72,.14-.95,.31m-6.32-.29c-.55,0-.75,.17-.75,.4,0,.29,.11,.57,.75,2.07l.09,.2c.6-1.41,.72-1.89,.72-2.18,0-.26-.23-.49-.81-.49"/><path class="cls-1" d="M90.27,82.29s-.03-.09-.03-.14c0-.11,.03-.2,.06-.23,.63-.06,1.03-.14,1.21-.26,.2-.09,.35-.43,.35-3.24v-2.24c0-2.81-.14-3.16-.35-3.24-.17-.11-.57-.2-1.21-.29-.03,0-.06-.14-.06-.23,0-.06,.03-.11,.03-.11h4.56s.03,.06,.03,.11c0,.09-.03,.23-.06,.23-.63,.09-1.03,.17-1.21,.29-.2,.09-.34,.43-.34,3.24v2.24c0,2.81,.14,3.16,.34,3.24,.17,.12,.57,.2,1.21,.26,.03,.03,.06,.11,.06,.23,0,.06-.03,.14-.03,.14h-4.56Z"/><path class="cls-1" d="M106.19,80.77c-1.09,1.06-2.3,1.55-4.3,1.55-.72,0-1.84-.03-2.44-.03s-1.44,.03-2.13,.03c-.03,0-.06-.08-.06-.17s.03-.17,.06-.2c.63-.06,.89-.14,1.09-.26,.2-.09,.34-.46,.34-3.27v-2.24c0-2.81-.14-3.19-.34-3.27-.2-.12-.46-.2-1.09-.29-.03,0-.06-.08-.06-.17s.03-.17,.06-.17c.69,0,1.55,.03,2.13,.03s2.06-.03,2.76-.03c3.22,0,5.63,2.12,5.63,4.91,0,1.32-.66,2.64-1.64,3.59m-4.45-7.92c-.98,0-1.23,.14-1.35,.29-.09,.11-.23,.86-.23,2.99v2.3c0,1.87,.14,2.7,.35,2.93,.29,.29,.52,.37,1.35,.37,3.1,0,4.42-1.38,4.42-4.28,0-2.35-1.52-4.59-4.54-4.59"/><path class="cls-1" d="M115.36,82.06c-.11,.17-.2,.29-.6,.29-.98,0-2.13-.06-3.45-.06-1.03,0-1.67,0-2.79,.03-.03,0-.06-.09-.06-.17s.03-.17,.06-.2c.63-.06,.92-.14,1.09-.26,.2-.09,.35-.46,.35-3.27v-2.24c0-2.81-.14-3.19-.35-3.27-.17-.11-.46-.2-1.09-.29-.03,0-.06-.09-.06-.17s.03-.17,.06-.17c1.24,.03,3.19,.03,4.22,.03,1.38,0,2.07-.06,2.59-.06,.06,0,.06,.03,.06,.06-.06,.52-.09,1.26-.17,2.06,0,.03-.08,.06-.17,.06-.12,0-.23-.03-.23-.09,0-.4-.09-.77-.31-1.03-.26-.26-.72-.4-1.84-.4-.63,0-1.06,.03-1.23,.03-.06,.17-.06,.69-.06,1.67v2.18h1.18c1.52,0,1.72-.35,1.81-.89,0-.03,.12-.03,.2-.03s.2,0,.2,.03c-.03,.43-.09,2.27-.09,2.67,0,.03-.12,.06-.2,.06-.12,0-.2-.03-.2-.06,0-.29-.06-.69-.23-.83-.14-.11-.37-.29-1.52-.29h-1.15v.98c0,1.87,.14,2.76,.34,2.99,.2,.17,.4,.29,1.35,.29s1.52-.23,1.81-.55c.23-.23,.4-.54,.52-1.06,0-.03,.06-.03,.09-.03,.09,0,.23,.06,.2,.09-.06,.8-.2,1.69-.31,1.92"/></g></svg>